/vscmnt/brussel_pixiu_data/_data_brussel/112/vsc11236/PredSimResults/SUBJ10opt3D/weighted-LRposFixed/expIG/worker_03.mot
version=1
nRows=8
nColumns=50
inDegrees=yes
endheader
                time	         pelvis_tilt	         pelvis_list	     pelvis_rotation	           pelvis_tx	           pelvis_ty	           pelvis_tz	       hip_flexion_r	     hip_adduction_r	      hip_rotation_r	        knee_angle_r	       ankle_angle_r	         mtp_angle_r	       hip_flexion_l	     hip_adduction_l	      hip_rotation_l	        knee_angle_l	       ankle_angle_l	         mtp_angle_l	    lumbar_extension	      lumbar_bending	     lumbar_rotation	 ercspn_r/activation	 intobl_r/activation	 extobl_r/activation	    abd_r/activation	    add_r/activation	hamstrings_r/activation	bifemsh_r/activation	glut_max_r/activation	iliopsoas_r/activation	rect_fem_r/activation	  vasti_r/activation	gastroc_r/activation	 soleus_r/activation	tib_ant_r/activation	 ercspn_l/activation	 intobl_l/activation	 extobl_l/activation	    abd_l/activation	    add_l/activation	hamstrings_l/activation	bifemsh_l/activation	glut_max_l/activation	iliopsoas_l/activation	rect_fem_l/activation	  vasti_l/activation	gastroc_l/activation	 soleus_l/activation	tib_ant_l/activation	
          0.00000000	         -4.89636772	         -0.94761407	          6.70059693	          0.00000000	          0.82255023	         -0.01335395	         31.38409539	         -1.47539631	         -5.79675715	         -6.17496064	          3.17857448	          0.25873238	        -14.61581172	         -0.28320451	          0.00727660	         -5.80834907	          9.00335946	         26.25575197	         -6.41478598	         -0.80191838	         -6.80323880	          0.12100276	          0.16572235	          0.00999999	          0.00999999	          0.14315423	          0.13546161	          0.21242415	          0.02704457	          0.11877860	          0.00999999	          0.00999999	          0.01273146	          0.00999999	          0.27722808	          0.05361274	          0.00999999	          0.00999999	          0.06567008	          0.00999999	          0.01310280	          0.25058994	          0.02435829	          0.51749105	          0.00999999	          0.00999999	          0.34583252	          0.27037289	          0.02515523	
          0.01171252	         -4.94173517	         -0.92009673	          6.84628839	          0.01557495	          0.82094061	         -0.01302696	         31.49082723	         -1.33632814	         -5.66673697	         -8.00034625	          2.87571759	          0.25850068	        -14.71617756	         -0.40774567	         -0.30690683	         -7.49829254	          8.44943902	         27.97526184	         -6.19006292	         -0.31856612	         -7.15881695	          0.10630035	          0.13865557	          0.00999999	          0.00999999	          0.22886796	          0.11333720	          0.17772991	          0.06928614	          0.09937897	          0.00999999	          0.00999999	          0.01707383	          0.01195213	          0.30120703	          0.10241351	          0.00999999	          0.00999999	          0.05494444	          0.02899161	          0.01771413	          0.20966208	          0.02040678	          0.46992474	          0.00999999	          0.00999999	          0.31698003	          0.26305629	          0.02104672	
          0.02342504	         -4.97514983	         -0.91457088	          6.96260156	          0.03155335	          0.81953619	         -0.01263583	         31.37800150	         -1.21556565	         -5.40109682	         -9.68873052	          2.50100331	          0.24554363	        -14.68130238	         -0.56912885	         -0.64099065	         -9.48006942	          7.74470559	         29.70777779	         -5.93250085	          0.19624460	         -7.48956756	          0.08893874	          0.11600951	          0.00999999	          0.01597442	          0.19148787	          0.09663623	          0.14870199	          0.11514217	          0.08314779	          0.00999999	          0.00999999	          0.01428523	          0.01000004	          0.37535632	          0.11994917	          0.00999999	          0.00999999	          0.04597058	          0.04173170	          0.01782020	          0.17541880	          0.01707382	          0.39317380	          0.00999999	          0.00999999	          0.27205071	          0.24934715	          0.01760925	
          0.03513756	         -4.99901040	         -0.92282646	          7.04010755	          0.04773934	          0.81844808	         -0.01210711	         31.09068555	         -1.08392209	         -5.19807773	        -11.08233544	          2.02278654	          0.23542351	        -14.46284597	         -0.76081138	         -1.00465884	        -11.80109441	          6.85700548	         31.38957761	         -5.66404518	          0.71847556	         -7.78768335	          0.10700291	          0.09706214	          0.00999999	          0.06406260	          0.18335764	          0.08337660	          0.12441509	          0.12941700	          0.06956759	          0.00999999	          0.00999999	          0.01195208	          0.00999999	          0.43460497	          0.13250376	          0.00999999	          0.00999999	          0.03846239	          0.03491583	          0.01490973	          0.14676835	          0.01428522	          0.32895829	          0.00999999	          0.00999999	          0.22761775	          0.23105367	          0.01473320	
          0.04685009	         -5.01418026	         -0.92739063	          7.07980702	          0.06392042	          0.81777142	         -0.01145478	         30.74165520	         -0.95167634	         -5.08841869	        -12.38585922	          1.57713651	          0.22222371	        -14.02128408	         -0.96501025	         -1.40028900	        -14.49352379	          5.77157067	         32.89646541	         -5.40756213	          1.22993687	         -8.04750500	          0.11103189	          0.08120936	          0.00999999	          0.10631621	          0.21442261	          0.07116547	          0.10409486	          0.13679087	          0.05820540	          0.00999999	          0.00999999	          0.00999999	          0.00999999	          0.46001836	          0.16205654	          0.00999999	          0.00999999	          0.03218048	          0.03032587	          0.02179484	          0.12279726	          0.01195208	          0.27523084	          0.00999999	          0.00999999	          0.19044185	          0.20914634	          0.01232688	
          0.05856261	         -5.02128908	         -0.93257449	          7.08586303	          0.07993212	          0.81758681	         -0.01069690	         30.40267518	         -0.81732383	         -5.04949051	        -13.72502985	          1.29620201	          0.20860204	        -13.32587628	         -1.18919574	         -1.82868980	        -17.57694157	          4.51438045	         34.01788258	         -5.17524455	          1.73471413	         -8.26796891	          0.10840803	          0.06794576	          0.00999999	          0.13523040	          0.23450846	          0.06642027	          0.08709346	          0.13589720	          0.04869894	          0.00999999	          0.05054776	          0.00999999	          0.00999999	          0.47414761	          0.18721690	          0.00999999	          0.00999999	          0.02692457	          0.10725520	          0.02943367	          0.10274127	          0.00999999	          0.23027848	          0.00999999	          0.00999999	          0.15933774	          0.17498730	          0.01031358	
          0.07027513	         -5.02261350	         -0.93558816	          7.05855429	          0.09565117	          0.81799629	         -0.00986058	         30.05228370	         -0.68000303	         -5.05451344	        -15.04467379	          1.23772268	          0.19324796	        -12.35157507	         -1.43215823	         -2.30876773	        -21.06098884	          3.12510759	         34.47603924	         -4.97498248	          2.22915798	         -8.44771190	          0.10421015	          0.05684845	          0.00999999	          0.15186897	          0.24767409	          0.06502795	          0.07286883	          0.12300376	          0.04074513	          0.00999999	          0.09076449	          0.00999999	          0.00999999	          0.46079946	          0.20075017	          0.00999999	          0.00999999	          0.02252709	          0.17696459	          0.03209305	          0.08596095	          0.00999999	          0.19266801	          0.00999999	          0.00999999	          0.13331374	          0.14640732	          0.00999999	
          0.08198765	         -5.02047613	         -0.92999582	          6.99802139	          0.11101943	          0.81904185	         -0.00897698	         29.63416521	         -0.53782746	         -5.06611065	        -16.24710438	          1.47166310	          0.18798472	        -11.09451629	         -1.69394399	         -2.84753301	        -24.91575403	          1.57414019	         34.13446450	         -4.80904990	          2.70686005	         -8.58552521	          0.09680832	          0.04756362	          0.00999999	          0.16297792	          0.24590604	          0.06695491	          0.06096746	          0.10291405	          0.03409039	          0.00999999	          0.12886927	          0.00999999	          0.00999999	          0.41133747	          0.20519817	          0.00999999	          0.00999999	          0.01884783	          0.23840079	          0.03942718	          0.07192129	          0.00999999	          0.16120031	          0.00999999	          0.00999999	          0.11154013	          0.12249519	          0.00999999	
